HIERARCHY
ROOT joint_0
{
	OFFSET 0.000000 0.000000 0.000000
	CHANNELS 6 Xposition Yposition Zposition Zrotation Yrotation Xrotation 
	JOINT joint_1
	{
		OFFSET 0.587158 0.057678 95.682007
		CHANNELS 3 Zrotation Yrotation Xrotation
		JOINT joint_2
		{
			OFFSET -7.116699 -0.219910 87.157959
			CHANNELS 3 Zrotation Yrotation Xrotation
			JOINT joint_3
			{
				OFFSET -5.892822 -0.290222 87.151001
				CHANNELS 3 Zrotation Yrotation Xrotation
				JOINT joint_4
				{
					OFFSET 5.544678 -0.099609 123.768066
					CHANNELS 3 Zrotation Yrotation Xrotation
					JOINT joint_5
					{
						OFFSET 41.981201 4.519775 84.257935
						CHANNELS 3 Zrotation Yrotation Xrotation
						End Site
						{
							OFFSET 0.000000 0.000000 0.000000
						}
					}
				}
				JOINT joint_6
				{
					OFFSET 3.940918 -26.976501 69.308105
					CHANNELS 3 Zrotation Yrotation Xrotation
					JOINT joint_7
					{
						OFFSET 4.776123 -152.592468 -16.842041
						CHANNELS 3 Zrotation Yrotation Xrotation
						JOINT joint_8
						{
							OFFSET 54.421875 -30.424072 -248.864014
							CHANNELS 3 Zrotation Yrotation Xrotation
							JOINT joint_9
							{
								OFFSET 42.120117 -33.387878 -236.524963
								CHANNELS 3 Zrotation Yrotation Xrotation
								End Site
								{
									OFFSET 0.000000 0.000000 0.000000
								}
							}
						}
					}
				}
				JOINT joint_10
				{
					OFFSET 2.312012 26.904114 69.425049
					CHANNELS 3 Zrotation Yrotation Xrotation
					JOINT joint_11
					{
						OFFSET 0.971436 152.197815 -20.626953
						CHANNELS 3 Zrotation Yrotation Xrotation
						JOINT joint_12
						{
							OFFSET 49.954102 28.991455 -249.970093
							CHANNELS 3 Zrotation Yrotation Xrotation
							JOINT joint_13
							{
								OFFSET 48.146973 19.598389 -236.919922
								CHANNELS 3 Zrotation Yrotation Xrotation
								End Site
								{
									OFFSET 0.000000 0.000000 0.000000
								}
							}
						}
					}
				}
			}
		}
	}
	JOINT joint_14
	{
		OFFSET 16.305664 -89.442932 -108.224976
		CHANNELS 3 Zrotation Yrotation Xrotation
		JOINT joint_15
		{
			OFFSET -22.282471 13.437134 -412.904968
			CHANNELS 3 Zrotation Yrotation Xrotation
			JOINT joint_16
			{
				OFFSET -45.426025 14.484802 -445.892029
				CHANNELS 3 Zrotation Yrotation Xrotation
				JOINT joint_17
				{
					OFFSET 173.389404 -9.944031 -76.473001
					CHANNELS 3 Zrotation Yrotation Xrotation
					End Site
					{
						OFFSET 0.000000 0.000000 0.000000
					}
				}
			}
		}
	}
	JOINT joint_18
	{
		OFFSET 13.392822 89.408875 -108.653992
		CHANNELS 3 Zrotation Yrotation Xrotation
		JOINT joint_19
		{
			OFFSET -29.032959 24.483521 -411.977966
			CHANNELS 3 Zrotation Yrotation Xrotation
			JOINT joint_20
			{
				OFFSET -30.530029 28.986328 -446.453018
				CHANNELS 3 Zrotation Yrotation Xrotation
				JOINT joint_21
				{
					OFFSET 170.330078 33.400757 -76.698997
					CHANNELS 3 Zrotation Yrotation Xrotation
					End Site
					{
						OFFSET 0.000000 0.000000 0.000000
					}
				}
			}
		}
	}
}
MOTION
Frames: 17
Frame Time: 0.016667
-2078.979492 958.337708 1112.765991 -3.346332 19.000652 -0.536066 -1.355136 -3.731752 3.994893 -0.346777 0.787662 -0.854176 0.029703 -0.619413 0.607214 0.850665 -21.103821 1.944357 0.000000 0.000000 0.000000 0.253312 5.837817 -3.421783 4.156981 6.764269 1.488268 -165.804476 -79.292536 -176.082890 0.000000 0.000000 0.000000 -1.619428 -1.921674 7.172176 23.207183 -0.319149 12.705381 -0.492291 -89.736435 -40.453652 0.000000 0.000000 0.000000 -0.116953 -39.898729 -12.466146 3.411484 31.768892 5.968079 3.296497 12.899761 2.239609 0.000000 0.000000 0.000000 -2.943243 -20.877016 3.171531 1.935200 18.558453 -5.104787 1.844972 18.741932 -2.887569 0.000000 0.000000 0.000000 
-2062.408447 963.015198 1112.697998 -1.687846 18.921650 0.498297 -1.443266 -2.813699 3.838869 -0.864717 0.499596 -0.761580 -0.503993 -0.514014 0.711801 0.466450 -21.376893 2.324045 0.000000 0.000000 0.000000 -0.063458 6.525800 -3.086456 3.536746 7.325172 -0.325193 -165.640857 -76.046876 -174.983545 0.000000 0.000000 0.000000 -1.417907 -3.308774 5.968509 21.545223 -1.683492 12.270209 -1.474042 -82.133219 -41.732149 0.000000 0.000000 0.000000 0.699200 -38.185438 -14.074451 2.948238 23.181365 4.436576 3.298148 16.307275 2.467566 0.000000 0.000000 0.000000 -3.555282 -23.727682 4.359305 1.439195 24.629650 -8.538529 0.431902 19.847475 -3.751155 0.000000 0.000000 0.000000 
-2043.794189 964.799133 1109.531982 -0.200755 18.553332 1.701283 -1.468232 -2.937571 2.849619 -1.077137 0.598207 -0.466489 -0.755335 -0.527377 0.562185 0.390945 -20.933895 2.104013 0.000000 0.000000 0.000000 -0.753853 7.128010 -2.132113 2.069118 7.665046 -3.000170 -165.878727 -73.809157 -173.453080 0.000000 0.000000 0.000000 -2.324397 -5.319467 5.468514 22.646883 -3.708609 13.786552 -1.117718 -79.508749 -45.141946 0.000000 0.000000 0.000000 1.359651 -36.270488 -15.878909 1.619350 17.397680 3.267275 1.978915 21.072765 2.236908 0.000000 0.000000 0.000000 -4.313782 -26.465759 6.435521 0.852453 32.597116 -13.898905 -1.852617 18.221113 -4.377183 0.000000 0.000000 0.000000 
-2024.397095 965.055725 1103.932007 0.768737 17.772462 2.569887 -1.159217 -3.189641 1.867756 -1.076837 0.687922 -0.345925 -0.834835 -0.590425 0.295237 0.467069 -20.093140 1.654514 0.000000 0.000000 0.000000 -1.628412 7.437043 -0.940288 -0.077469 7.699599 -6.250543 -166.453170 -72.199540 -171.631367 0.000000 0.000000 0.000000 -3.750423 -7.929029 5.123966 25.016707 -6.452740 16.245614 -0.085905 -78.746162 -49.834967 0.000000 0.000000 0.000000 1.956167 -33.792019 -17.138162 -0.451875 12.744662 2.214472 -0.128555 26.106479 1.678853 0.000000 0.000000 0.000000 -5.009466 -28.709522 9.455345 0.122222 41.427348 -20.111930 -4.697389 16.118832 -5.042083 0.000000 0.000000 0.000000 
-2005.510010 965.961121 1096.313965 1.382902 16.980217 3.164441 -0.789897 -3.752408 0.888612 -1.191190 0.765355 -0.243573 -1.141017 -0.700116 0.102193 0.567844 -19.399545 1.366629 0.000000 0.000000 0.000000 -2.193653 7.377312 -0.178517 -1.751546 7.479647 -8.677854 -167.030361 -71.482570 -170.480291 0.000000 0.000000 0.000000 -4.725291 -10.198520 4.756503 26.837571 -9.005140 17.925828 0.914187 -77.641999 -53.807372 0.000000 0.000000 0.000000 2.208704 -31.656755 -17.908857 -2.680598 10.389915 1.547813 -2.422870 27.357011 0.754074 0.000000 0.000000 0.000000 -5.334968 -30.854053 12.468082 -0.349936 49.608537 -25.156335 -6.315491 13.941788 -5.204800 0.000000 0.000000 0.000000 
-1987.384033 968.096313 1085.045044 1.878310 16.639437 3.510192 -0.171684 -5.499063 -0.163485 -1.735612 1.087008 -0.065648 -2.179955 -0.979335 0.039310 0.667213 -18.990753 1.351029 0.000000 0.000000 0.000000 -2.169841 7.062996 -0.409422 -2.531384 7.011946 -9.541504 -167.517031 -71.896499 -170.245779 0.000000 0.000000 0.000000 -4.860812 -11.531826 4.604890 27.474317 -10.595892 18.077992 1.542374 -75.889392 -55.817340 0.000000 0.000000 0.000000 2.505867 -30.648393 -18.526910 -4.594323 12.081148 1.548187 -4.804516 20.940440 -0.662159 0.000000 0.000000 0.000000 -5.150607 -34.048432 15.533604 -0.406901 57.864692 -28.906406 -5.745467 10.047174 -4.196063 0.000000 0.000000 0.000000 
-1969.766113 970.880615 1071.756958 2.166705 16.271985 3.622345 1.081837 -7.441985 -1.355131 -2.560305 1.337025 0.132254 -3.936153 -1.395985 0.051017 0.789184 -18.701808 1.469849 0.000000 0.000000 0.000000 -1.756929 6.610523 -1.171841 -2.727738 6.318789 -9.397867 -167.990395 -73.441518 -170.692537 0.000000 0.000000 0.000000 -4.575804 -12.281196 4.536762 27.652387 -11.644737 17.544511 2.084851 -74.225266 -56.807355 0.000000 0.000000 0.000000 3.121523 -29.762480 -19.083387 -5.888407 15.894691 2.013769 -7.026421 11.167241 -2.094449 0.000000 0.000000 0.000000 -4.666395 -37.585018 18.685793 -0.301022 66.053328 -31.536815 -4.698557 4.680787 -2.337926 0.000000 0.000000 0.000000 
-1953.189087 974.740417 1061.758057 2.057923 15.470976 3.616174 2.452708 -8.363358 -2.495477 -3.192558 1.343904 0.316651 -5.581741 -1.691370 0.080622 0.920532 -18.616675 1.602199 0.000000 0.000000 0.000000 -1.408598 6.050874 -1.753320 -2.232803 5.619878 -8.630010 -168.256405 -75.809223 -172.037811 0.000000 0.000000 0.000000 -4.234378 -12.630759 4.208122 27.835094 -12.367196 17.031707 2.539156 -73.005838 -57.969681 0.000000 0.000000 0.000000 3.712968 -28.174676 -19.494001 -6.490373 18.475118 2.466889 -8.427614 4.402544 -3.001046 0.000000 0.000000 0.000000 -3.934559 -40.372975 21.231683 0.160185 72.123076 -32.277261 -4.200647 0.064642 -0.205067 0.000000 0.000000 0.000000 
-1938.322876 979.818970 1057.193970 1.521628 14.218149 3.527159 3.396421 -8.277241 -3.331953 -3.376065 1.343759 0.462779 -6.531322 -1.707913 0.071339 1.085564 -18.892204 1.672263 0.000000 0.000000 0.000000 -1.432265 5.101818 -1.917867 -0.778847 4.948835 -7.027086 -168.131646 -79.079387 -174.640407 0.000000 0.000000 0.000000 -4.006005 -12.496810 3.536930 28.166506 -12.632183 16.704422 2.772282 -72.843739 -59.560021 0.000000 0.000000 0.000000 4.110694 -25.868636 -19.746047 -6.612761 19.002121 2.700283 -8.852897 1.922062 -3.300210 0.000000 0.000000 0.000000 -3.027283 -42.291237 23.177132 1.100767 75.345643 -31.486497 -2.922883 -3.045697 1.911397 0.000000 0.000000 0.000000 
-1924.496582 985.973145 1055.920044 0.727918 12.767308 3.383180 3.908267 -7.781633 -3.917941 -3.326047 1.363481 0.589157 -6.972694 -1.578651 0.023166 1.277472 -19.352747 1.706603 0.000000 0.000000 0.000000 -1.642420 3.957029 -1.848750 1.316709 4.273582 -4.884063 -167.800185 -82.945889 -178.302932 0.000000 0.000000 0.000000 -3.743141 -12.066576 2.779193 28.634236 -12.474334 16.349176 2.889663 -73.393050 -61.551455 0.000000 0.000000 0.000000 4.355214 -23.278543 -19.923709 -6.432008 18.741403 2.866214 -8.701030 1.396783 -3.271909 0.000000 0.000000 0.000000 -2.227379 -43.649745 24.842691 2.046596 76.129932 -30.341422 -0.570247 -5.503586 3.604458 0.000000 0.000000 0.000000 
-1910.227783 993.207031 1056.800049 -0.210177 11.485148 3.266800 4.035393 -7.368416 -4.347599 -3.207253 1.334509 0.675426 -6.992562 -1.483338 -0.042778 1.435120 -19.551784 1.720240 0.000000 0.000000 0.000000 -1.977314 3.279236 -1.676965 3.340064 3.826627 -3.147816 -167.515302 -86.379005 177.823761 0.000000 0.000000 0.000000 -3.377332 -11.949843 2.209673 29.540380 -12.333483 15.947920 3.313350 -73.464016 -64.960642 0.000000 0.000000 0.000000 4.367153 -20.931234 -20.119733 -6.166453 18.190363 2.963229 -8.330081 2.018337 -3.092582 0.000000 0.000000 0.000000 -1.913793 -44.328044 26.204469 2.279166 74.416426 -29.753312 1.305557 -7.236824 3.964969 0.000000 0.000000 0.000000 
-1894.838501 1001.659119 1060.385010 -1.194760 10.653730 3.269112 3.727195 -7.426222 -4.683120 -3.088162 1.312726 0.709052 -6.582403 -1.497151 -0.113195 1.529465 -19.311863 1.690437 0.000000 0.000000 0.000000 -2.569529 3.415345 -1.603657 5.349602 3.833825 -1.790272 -167.240591 -88.971201 173.807003 0.000000 0.000000 0.000000 -2.774808 -12.391422 1.916127 30.997265 -12.361611 15.537770 4.358975 -72.374132 -70.551580 0.000000 0.000000 0.000000 4.152422 -19.128847 -20.573518 -5.880151 17.406386 3.129971 -7.771556 3.931628 -2.765598 0.000000 0.000000 0.000000 -2.123873 -44.139073 26.898289 1.767134 69.297873 -29.499790 1.571172 -7.771382 2.920995 0.000000 0.000000 0.000000 
-1879.005615 1011.191101 1066.124023 -2.245729 10.047856 3.304999 3.112633 -7.700493 -4.898092 -2.912845 1.313385 0.719183 -5.881434 -1.531724 -0.192729 1.591530 -18.820748 1.598500 0.000000 0.000000 0.000000 -3.334501 3.934598 -1.590891 7.307227 4.080665 -0.708367 12.992389 -88.780812 -10.228025 0.000000 0.000000 0.000000 -2.106017 -12.942159 1.823350 32.342293 -12.383958 15.147170 5.679217 -70.447486 -76.975567 0.000000 0.000000 0.000000 3.785407 -17.602876 -21.159589 -5.559002 16.297518 3.303009 -7.040362 7.071489 -2.301093 0.000000 0.000000 0.000000 -2.264350 -43.132892 26.685996 1.520147 61.544992 -27.861438 0.799465 -6.582538 1.660253 0.000000 0.000000 0.000000 
-1863.275757 1021.388733 1071.230957 -3.358814 9.330636 3.195414 2.555763 -7.820266 -4.990192 -2.703314 1.281371 0.731772 -5.254541 -1.549790 -0.262586 1.633560 -18.145548 1.494522 0.000000 0.000000 0.000000 -3.890879 4.420907 -1.577379 8.413501 4.245306 -0.523668 12.957948 -86.466513 -13.159285 0.000000 0.000000 0.000000 -1.703810 -13.510212 1.930145 33.372741 -12.328981 14.605136 6.486866 -67.137269 -82.777685 0.000000 0.000000 0.000000 3.292112 -16.051603 -21.443224 -5.360850 15.152095 3.182518 -6.512115 10.313618 -1.902453 0.000000 0.000000 0.000000 -1.984713 -41.826973 25.995516 1.801575 54.116553 -24.527788 0.142928 -4.112198 0.710593 0.000000 0.000000 0.000000 
-1847.737427 1032.013672 1075.082031 -4.225516 8.383731 2.809800 2.117179 -7.765352 -4.962332 -2.584977 1.271463 0.719746 -4.904493 -1.537636 -0.295607 1.625035 -17.231238 1.444694 0.000000 0.000000 0.000000 -4.026321 4.863918 -1.457831 8.075196 4.268181 -1.800044 12.488414 -83.901824 -14.163725 0.000000 0.000000 0.000000 -1.813343 -14.074746 2.310774 33.929036 -12.101705 13.955530 6.940368 -60.059429 -88.333852 0.000000 0.000000 0.000000 2.555164 -14.215749 -21.130732 -5.416296 13.925064 2.578056 -6.349002 13.366641 -1.650466 0.000000 0.000000 0.000000 -1.356260 -40.735239 25.092453 2.408945 48.159113 -19.492856 0.370136 -0.720343 0.059989 0.000000 0.000000 0.000000 
-1832.301270 1043.305542 1078.300049 -5.093359 7.317180 2.293767 1.694046 -7.554272 -4.829651 -2.473393 1.238529 0.690081 -4.607256 -1.517286 -0.309680 1.586157 -16.129338 1.391268 0.000000 0.000000 0.000000 -3.932454 5.276719 -1.243794 6.965003 4.175377 -4.050975 11.822373 -81.117413 -13.966251 0.000000 0.000000 0.000000 -2.231019 -14.432151 2.844964 33.221086 -11.691733 13.460024 7.023029 -50.221607 -92.846937 0.000000 0.000000 0.000000 1.659008 -12.304978 -20.552935 -5.634704 12.606311 1.691868 -6.406480 16.563961 -1.468503 0.000000 0.000000 0.000000 -0.754577 -39.264603 24.004932 2.832597 42.450960 -13.872537 0.531204 3.839751 -0.822115 0.000000 0.000000 0.000000 
-1817.254395 1055.565430 1079.974976 -6.526681 6.288220 1.918840 1.408299 -7.196137 -4.617696 -2.214778 1.136342 0.674021 -4.188390 -1.486306 -0.331623 1.601274 -15.066633 1.229137 0.000000 0.000000 0.000000 -3.841586 5.382921 -1.136408 6.118793 3.796651 -6.162927 11.359228 -78.143222 -13.767962 0.000000 0.000000 0.000000 -2.547087 -14.854135 3.194055 31.602109 -11.261511 13.031821 6.629823 -40.142995 -95.937039 0.000000 0.000000 0.000000 0.836353 -10.842146 -20.238036 -6.036294 11.590221 0.812690 -6.753896 19.554930 -1.402273 0.000000 0.000000 0.000000 -0.635604 -37.054921 23.150811 2.466302 37.199686 -9.952496 -0.505838 8.470174 -2.148971 0.000000 0.000000 0.000000 
